<svg xmlns="http://www.w3.org/2000/svg" viewBox="0 0 512 512"><defs><style>.cls-1{fill:#FILL1;}.cls-2{fill:#FILL2;}.cls-3{fill:#FILL3;}</style></defs><title>bad</title><g id="Layer_2" data-name="Layer 2"><g id="Layer_1-2" data-name="Layer 1"><path class="cls-1" d="M0,297V273c1.78-1.4,1.36-3.61,1.8-5.42,1.37-5.72,2.83-11.64,6.56-16,5-5.85,4-10.82,2-17.69-7.87-26-.64-49.16,16.08-69.8,1.33-1.64,2.7-2.65,1.94-5.49-7.42-27.89,1.23-52.05,17.91-74.17A22.68,22.68,0,0,1,52.1,79c2.92-1.85,3.22-4,2.66-7.15C49.51,42.07,69.41,10.73,98.56,2.75,102.34,1.71,106.18.91,110,0H233c.76,1.66,2.31,1,3.5,1.08,14.57,1.36,29.11,3,43.54,5.5,29.81,5.19,59.06,12.92,88.47,19.9,3.47.82,5.23.53,7.09-2.8A44.78,44.78,0,0,1,397.45,4c3.73-1.6,7.7-2.68,11.55-4h64c.46,1.47,1.9,1.19,2.9,1.48q26.81,7.83,34.62,34.61c.29,1,0,2.45,1.47,2.91V312c-.94.39-.86,1.29-1.07,2.07C504.4,338.41,486.67,352,461.37,352c-14.48,0-29-.11-43.45,0-10,.11-19.36-2.26-27.22-8.17-4.87-3.66-8.66-3.56-13.17-.41a14.9,14.9,0,0,1-2.21,1.14c-19.33,9.12-35.75,21.75-47.86,39.59C311.21,408.1,304.76,434.93,304,463.4c-.59,22.76-13.94,40.39-35.67,46.91-1.16.35-2.76.12-3.36,1.69H249c-11-3.27-21.31-7.89-30.16-15.47-16.63-14.24-27.85-32-34.88-52.59-9.89-28.93-7.68-58.43-3.59-87.93.56-4-.12-4.75-3.88-4.81-20.48-.3-41-.68-61.44-1.3-20.8-.63-41.69-.52-62.26-4-24.32-4.14-41.69-17.34-50.29-41C1.56,302.25,1.67,299.34,0,297Zm223.5,23a6.08,6.08,0,0,1,0,1.36c-.64,2.06-1.24,4.15-2,6.17a196.72,196.72,0,0,0-12.39,76.88c.67,20.58,6.72,39.24,19,55.81,5.4,7.3,11.64,13.79,20,17.72,12.22,5.73,23.66-1.5,23.94-15a193.84,193.84,0,0,1,6.06-45.44c13.21-50.23,43.46-85.69,91.79-105.26,10.76-4.36,14.15-8.74,14.15-20.15q0-107.48-.06-215c0-10-3.42-14.61-13.23-17.06-17.26-4.31-34.6-8.33-51.88-12.59-35.5-8.76-71.36-15.06-108-15.38-30.33-.26-60.66-.1-91,0-19.06,0-27.54,6.46-33,24.75C82.91,69.83,90.31,79.92,103.88,80c8,0,16-.1,24,.05,5,.1,8.28,3.54,8.16,8.18-.11,4.42-3.28,7.48-8.1,7.75-1.66.09-3.33,0-5,0-11.31.31-22.67-.81-33.94,1-9.59,1.5-18.13,5-23,14a71.23,71.23,0,0,0-8.57,28.47c-.8,10.81,4.7,17.69,15.47,19.79a43.44,43.44,0,0,0,7.93.73c9.83.08,19.66,0,29.49,0,5.93,0,9.51,3,9.63,7.81.13,5-3.54,8.16-9.74,8.18-12,0-24,0-36,0-16,.08-26.45,7.4-31.78,22.44a75.64,75.64,0,0,0-2.82,11.1C36.31,227,46.88,239.83,64.74,240c9.66.08,19.33,0,29,0,6.61,0,10.37,3,10.25,8.19S100.29,256,93.87,256c-11,0-22-.4-33,.14-20.63,1-29,9.83-28.82,28.48,0,1.17-.05,2.33-.05,3.5,0,13.63,6.44,22.11,19.57,26,15.07,4.48,30.62,4.36,46.07,4.8,40.31,1.15,80.64,1.14,121,1.08ZM480,176q0-62.71,0-125.42C480,38,473.91,32,461.24,32q-21.74,0-43.47,0C406.48,32,400,38.4,400,49.58q0,126.42,0,252.84c0,11.2,6.46,17.55,17.76,17.57q21.74,0,43.47,0c12.67,0,18.75-6,18.75-18.58Q480,238.71,480,176Z"/><path class="cls-2" d="M223.5,320h-4.89c-40.33.06-80.66.07-121-1.08-15.45-.44-31-.32-46.07-4.8-13.12-3.9-19.59-12.38-19.57-26,0-1.17.06-2.33.05-3.5-.2-18.65,8.2-27.47,28.82-28.48,11-.54,22-.11,33-.14,6.41,0,10-2.81,10.12-7.81S100.35,240,93.74,240c-9.67,0-19.33.06-29,0-17.86-.15-28.43-12.94-25.09-30.42a75.64,75.64,0,0,1,2.82-11.1c5.33-15,15.78-22.37,31.78-22.44,12-.06,24,0,36,0,6.2,0,9.87-3.15,9.74-8.18-.12-4.83-3.71-7.78-9.63-7.81-9.83,0-19.66,0-29.49,0a43.44,43.44,0,0,1-7.93-.73c-10.77-2.11-16.27-9-15.47-19.79A71.23,71.23,0,0,1,66,111c4.84-9,13.38-12.51,23-14,11.27-1.76,22.62-.65,33.94-1,1.67,0,3.34.07,5,0,4.82-.27,8-3.33,8.1-7.75.12-4.64-3.12-8.09-8.16-8.18-8-.16-16,0-24-.05-13.57-.07-21-10.16-17.06-23.23C92.28,38.47,100.76,32,119.82,32c30.33-.05,60.66-.22,91,0,36.67.32,72.53,6.62,108,15.38,17.28,4.26,34.61,8.28,51.88,12.59,9.81,2.45,13.22,7.08,13.23,17.06q0,107.48.06,215c0,11.41-3.39,15.79-14.15,20.15-48.33,19.57-78.58,55-91.79,105.26A193.84,193.84,0,0,0,272,462.91c-.28,13.53-11.72,20.75-23.94,15-8.37-3.92-14.61-10.42-20-17.72-12.25-16.56-18.3-35.23-19-55.81a196.72,196.72,0,0,1,12.39-76.88c.76-2,1.36-4.1,2-6.17A6.08,6.08,0,0,0,223.5,320Z"/><path class="cls-2" d="M480,176q0,62.71,0,125.42C480,314,473.91,320,461.24,320q-21.74,0-43.47,0c-11.3,0-17.76-6.37-17.76-17.57Q400,176,400,49.58C400,38.4,406.48,32,417.77,32q21.74,0,43.47,0C473.91,32,480,38,480,50.58Q480,113.29,480,176ZM416,72.09A24,24,0,1,0,440.18,48,24.08,24.08,0,0,0,416,72.09Z"/><path class="cls-1" d="M416,72.09A24,24,0,1,1,439.84,96,24.1,24.1,0,0,1,416,72.09Zm16-.33A8,8,0,1,0,440.13,64,8.12,8.12,0,0,0,432,71.76Z"/><path class="cls-3" d="M432,71.76A8,8,0,1,1,439.64,80,8.14,8.14,0,0,1,432,71.76Z"/></g></g></svg>