<svg xmlns="http://www.w3.org/2000/svg" viewBox="0 0 511.99 512"><defs><style>.cls-1{fill:#FILL1;}.cls-2{fill:#FILL2;}.cls-3{fill:#FILL3;}</style></defs><title>Asset 1</title><g id="Layer_2" data-name="Layer 2"><g id="Layer_1-2" data-name="Layer 1"><g id="Layer_2-2" data-name="Layer 2"><g id="Layer_1-2-2" data-name="Layer 1-2"><path class="cls-1" d="M512,215v24c-1.78,1.4-1.36,3.61-1.8,5.42-1.37,5.72-2.83,11.64-6.56,16-5,5.85-4,10.82-2,17.69,7.87,26,.64,49.16-16.08,69.8-1.33,1.64-2.7,2.65-1.94,5.49,7.42,27.89-1.23,52.05-17.91,74.17a22.68,22.68,0,0,1-5.81,5.43c-2.92,1.85-3.22,4-2.66,7.15,5.25,29.78-14.65,61.12-43.8,69.1-3.78,1-7.62,1.84-11.44,2.75H279c-.76-1.66-2.31-1-3.5-1.08-14.57-1.36-29.11-3-43.54-5.5-29.81-5.19-59.06-12.92-88.47-19.9-3.47-.82-5.23-.53-7.09,2.8A44.78,44.78,0,0,1,114.54,508c-3.73,1.6-7.7,2.68-11.55,4H39c-.46-1.47-1.9-1.19-2.9-1.48Q9.28,502.69,1.47,475.91c-.29-1,0-2.45-1.47-2.91V200c.94-.39.86-1.29,1.07-2.07C7.59,173.59,25.32,160,50.62,160c14.48,0,29,.11,43.45,0,10-.11,19.36,2.26,27.22,8.17,4.87,3.66,8.66,3.56,13.17.41a14.9,14.9,0,0,1,2.21-1.14c19.33-9.12,35.75-21.75,47.86-39.59,16.25-24,22.7-50.78,23.46-79.25.59-22.76,13.94-40.39,35.67-46.91,1.16-.35,2.76-.12,3.36-1.69h16c11,3.27,21.31,7.89,30.16,15.47C309.78,29.71,321,47.47,328,68.06c9.89,28.93,7.68,58.43,3.59,87.93-.56,4,.12,4.75,3.88,4.81,20.48.3,41,.68,61.44,1.3,20.8.63,41.69.52,62.26,4,24.32,4.14,41.69,17.34,50.29,41C510.43,209.75,510.32,212.66,512,215Zm-223.5-23a6.08,6.08,0,0,1,0-1.36c.64-2.06,1.24-4.15,2-6.17a196.72,196.72,0,0,0,12.39-76.88c-.67-20.58-6.72-39.24-19-55.81-5.4-7.3-11.64-13.79-20-17.72-12.22-5.73-23.66,1.5-23.94,15a193.84,193.84,0,0,1-6.06,45.44c-13.21,50.23-43.46,85.69-91.79,105.26-10.76,4.36-14.15,8.74-14.15,20.15q0,107.48.06,215c0,10,3.42,14.61,13.23,17.06,17.26,4.31,34.6,8.33,51.88,12.59,35.5,8.76,71.36,15.06,108,15.38,30.33.26,60.66.1,91,0,19.06,0,27.54-6.46,33-24.75,4-13-3.43-23.11-17-23.19-8,0-16,.1-24-.05-5-.1-8.28-3.54-8.16-8.18.11-4.42,3.28-7.48,8.1-7.75,1.66-.09,3.33,0,5,0,11.31-.31,22.67.81,33.94-1,9.59-1.5,18.13-5,23-14a71.23,71.23,0,0,0,8.57-28.47c.8-10.81-4.7-17.69-15.47-19.79a43.44,43.44,0,0,0-7.93-.73c-9.83-.08-19.66,0-29.49,0-5.93,0-9.51-3-9.63-7.81-.13-5,3.54-8.16,9.74-8.18h36c16-.08,26.45-7.4,31.78-22.44a75.64,75.64,0,0,0,2.82-11.1c3.3-17.5-7.27-30.33-25.13-30.5-9.66-.08-19.33,0-29,0-6.61,0-10.37-3-10.25-8.19s3.7-7.81,10.12-7.81c11,0,22,.4,33-.14,20.63-1,29-9.83,28.82-28.48,0-1.17,0-2.33,0-3.5,0-13.63-6.44-22.11-19.57-26-15.07-4.48-30.62-4.36-46.07-4.8-40.31-1.15-80.64-1.14-121-1.08ZM32,336V461.42C32,474,38.08,480,50.75,480H94.22c11.29,0,17.77-6.4,17.77-17.58V209.58c0-11.2-6.46-17.55-17.76-17.57H50.76C38.09,192,32,198,32,210.59Q32,273.29,32,336Z"/><path class="cls-2" d="M288.49,192h4.89c40.33-.06,80.66-.07,121,1.08,15.45.44,31,.32,46.07,4.8,13.12,3.9,19.59,12.38,19.57,26,0,1.17-.06,2.33,0,3.5.2,18.65-8.2,27.47-28.82,28.48-11,.54-22,.11-33,.14-6.41,0-10,2.81-10.12,7.81s3.61,8.19,10.22,8.19c9.67,0,19.33-.06,29,0,17.86.15,28.43,12.94,25.09,30.42a75.64,75.64,0,0,1-2.82,11.1c-5.33,15-15.78,22.37-31.78,22.44-12,.06-24,0-36,0-6.2,0-9.87,3.15-9.74,8.18.12,4.83,3.71,7.78,9.63,7.81h29.49a43.44,43.44,0,0,1,7.93.73c10.77,2.11,16.27,9,15.47,19.79A71.23,71.23,0,0,1,446,401c-4.84,9-13.38,12.51-23,14-11.27,1.76-22.62.65-33.94,1-1.67,0-3.34-.07-5,0-4.82.27-8,3.33-8.1,7.75-.12,4.64,3.12,8.09,8.16,8.18,8,.16,16,0,24,.05,13.57.07,21,10.16,17.06,23.23-5.46,18.32-13.94,24.79-33,24.79-30.33,0-60.66.22-91,0-36.67-.32-72.53-6.62-108-15.38-17.28-4.26-34.61-8.28-51.88-12.59-9.81-2.45-13.22-7.08-13.23-17.06q0-107.48-.06-215c0-11.41,3.39-15.79,14.15-20.15,48.33-19.57,78.58-55,91.79-105.26A193.84,193.84,0,0,0,240,49.09c.28-13.53,11.72-20.75,23.94-15,8.37,3.92,14.61,10.42,20,17.72,12.25,16.56,18.3,35.23,19,55.81a196.72,196.72,0,0,1-12.39,76.88c-.76,2-1.36,4.1-2,6.17A6.08,6.08,0,0,0,288.49,192Z"/><path class="cls-2" d="M32,336V210.58C32,198,38.08,192,50.75,192H94.22c11.3,0,17.76,6.37,17.76,17.57q0,126.43,0,252.85C112,473.6,105.51,480,94.22,480H50.75C38.08,480,32,474,32,461.42ZM96,439.91a24.08,24.08,0,1,0,0,.11S96,439.95,96,439.91Z"/><path class="cls-1" d="M96,439.91A24,24,0,1,1,71.9,416h.25A24.1,24.1,0,0,1,96,439.91Zm-16,.33A8,8,0,1,0,71.75,448h.11A8.12,8.12,0,0,0,80,440.24Z"/><path class="cls-3" d="M80,440.24A8,8,0,1,1,72.24,432h.11A8.14,8.14,0,0,1,80,440.24Z"/></g></g></g></g></svg>